<svg version="1.2" xmlns="http://www.w3.org/2000/svg" viewBox="0 0 1309 261" width="1200" height="239"><style>.a{fill:#92192c}.b{fill:#11274b}</style><path fill-rule="evenodd" class="a" d="m40 0.1c1.9-0.1 6.2 0.8 9.5 1.9 3.7 1.2 7.9 3.6 10.9 6.2 2.7 2.4 6 6.5 7.4 9.3 1.5 3 2.7 7.5 3 11 0.3 3.9-0.1 8-1.2 11.8-1.2 4.1-2.9 7.1-6.4 10.9-3 3.2-7 6.3-10.3 7.8-4 1.8-7.1 2.4-12.4 2.5-4.6 0-8.6-0.6-11.5-1.8-2.5-1.1-6.4-3.4-8.8-5.3-2.8-2.3-5.2-5.6-7.4-10.2-2.6-5.4-3.2-7.9-3.2-13.2 0.1-4.8 0.7-8 2.6-12 1.4-3 4.2-7.2 6.2-9.3 2-2 5.1-4.5 6.9-5.4 1.7-0.9 5-2.2 7.2-2.9 2.2-0.7 5.6-1.3 7.5-1.3zm-10.9 13.2c-1.7 1-4.4 3.8-6.1 6.4-1.6 2.7-3.2 6.4-3.6 8.3-0.3 1.9-0.1 5.3 0.5 7.5 0.5 2.2 2 5.6 3.3 7.5 1.4 2.1 4.5 4.6 7.8 6.3 3.4 1.7 7.1 2.7 9.5 2.7 2.2 0 5.8-0.9 8-1.9 2.2-1 5-2.8 6.3-4 1.2-1.1 3.1-3.9 4.2-6.1 1.2-2.3 2-6 2-8.8 0-2.6-0.9-6.5-1.9-8.7-1-2.2-3.1-5.2-4.7-6.7-1.6-1.5-4.9-3.4-7.4-4.3-2.5-0.8-5.6-1.5-7-1.4-1.4 0-3.7 0.4-5.2 0.8-1.5 0.5-4.1 1.5-5.7 2.4zm152.7-13.3c1.7 0 6.2 1 9.9 2.2 5 1.7 7.9 3.5 11.5 7 2.6 2.7 5.8 6.9 7 9.5 1.7 3.6 2.2 6.7 2.2 12.3 0 5.4-0.6 8.8-2 12-1.1 2.5-3.8 6.5-6 8.8-2.1 2.4-6.4 5.6-9.4 7-4.4 2.2-6.9 2.7-13 2.7-6.1 0-8.6-0.5-13-2.7-3-1.4-7.3-4.6-9.4-7-2.2-2.3-4.9-6.3-6-8.8-1.5-3.2-2.1-6.6-2.1-12 0-5.7 0.6-8.7 2.3-12.3 1.2-2.6 4.4-6.8 7-9.5 3.5-3.4 6.5-5.3 11.2-6.9 3.6-1.2 8-2.2 9.8-2.3zm-15 17c-2.1 2.2-4.2 5.7-4.8 7.7-0.5 2.1-1 5.4-1 7.3 0 1.9 0.9 5.3 1.9 7.5 1 2.2 3.1 5.2 4.7 6.7 1.6 1.5 4.6 3.4 6.7 4.2 2 0.9 5.6 1.6 8 1.6 2.5 0 6-0.9 8.7-2.3 2.5-1.3 6-4.2 7.8-6.5q3.2-4.2 3.8-9 0.7-4.7-1-10c-1.2-3.9-2.7-6.1-5.8-8.7-2.4-1.9-6.2-3.9-8.5-4.5-2.4-0.5-5.3-1-6.5-0.9-1.3 0-4.1 0.7-6.3 1.4-2.2 0.8-5.7 3.2-7.7 5.5zm-124.8 56.3c6.8 0.3 9.8 0.9 15 3.4 4.6 2.1 8.2 4.8 12.3 9.1 3.1 3.4 5.9 7.1 6.2 8.2 0.3 1.2-0.6 3.5-2.2 5.8-1.5 2-3 4.2-3.4 4.7-0.4 0.5-1.6-1-2.6-3.5-1.1-2.5-3.7-6.3-5.9-8.4-2.1-2.2-6.4-5.1-9.4-6.5-4.3-1.9-6.9-2.4-12.2-2.3-3.9 0.1-8.6 1-11 2-2.4 1-6.3 3.6-8.6 5.8-2.4 2.1-5.6 6.4-9.7 14.9v57.5c0 55.8 0.1 57.6 2.1 62 1.1 2.5 3.8 6.5 6.1 9 2.4 2.7 6.2 5.5 9.4 6.9 3.6 1.5 7.4 2.3 11.4 2.3 3.3 0.1 7.8-0.5 10-1.2 2.2-0.7 5.8-2.5 8-4 2.2-1.5 5.2-4.5 6.7-6.6 1.5-2.2 3.4-5.9 4.3-8.4 0.9-2.6 1.5-7.8 1.5-12.2 0-4.3 0.3-8 0.8-8.3 0.4-0.2 2.3 1.6 4.2 4.1 1.9 2.4 3.8 4.4 4.3 4.4 0.4 0 0.9 0.6 1.1 1.3 0.2 0.6 0 3.7-0.4 6.7-0.4 3-1.9 8.1-3.3 11.3-1.5 3.1-4.8 8-7.4 10.8-2.7 2.8-6.6 6.1-8.8 7.4-2.2 1.3-6.9 3.1-10.5 4.1-4.6 1.2-8.5 1.5-13.5 1.1-5.1-0.5-8.9-1.6-14-4.1-4.5-2.2-8.6-5.1-11.4-8.2-2.4-2.7-5.8-7.8-10.6-17.9v-121l3.1-6.5c1.7-3.6 4.6-8.3 6.5-10.4 1.9-2.1 5.2-5.1 7.4-6.6 2.2-1.5 6.7-3.7 10-4.9 4.8-1.7 7.7-2.1 14.5-1.8zm68.5-58.2c2.8-0.1 7.5 0.6 10.5 1.5 4.4 1.3 6.8 2.9 11.6 7.8 4.8 4.9 6.4 7.3 7.8 12.1 1.3 4.1 1.7 7.7 1.4 11.5-0.3 3-1.4 7.5-2.5 10-1 2.5-3.5 6.3-5.5 8.5-2 2.2-5.5 5-7.9 6.2-2.4 1.2-6.8 2.7-9.6 3.3-3.7 0.7-6.9 0.7-10.5 0-2.9-0.6-7.5-2.3-10.2-3.8-2.7-1.5-6.2-4.3-7.8-6.2-1.5-1.9-3.8-5.5-5-8-1.6-3.4-2.2-6.4-2.2-12 0-5.7 0.6-8.7 2.2-12.5 1.3-2.7 4-6.7 6-8.8 2-2.1 5.5-4.8 7.7-5.9 2.2-1.2 5.1-2.5 6.5-2.9 1.4-0.4 4.8-0.8 7.5-0.8zm-15.2 17.2c-1.8 2.1-3.7 5.4-4.3 7.5-0.5 2-1 5.1-1 6.7 0 1.7 1.2 5.5 2.7 8.5 2.1 4.2 4 6.2 7.7 8.5 4 2.4 6.1 3 10.5 3 4.1 0 6.8-0.7 10.1-2.5 2.4-1.4 5.7-4.3 7.3-6.5 1.9-2.6 3-5.7 3.4-9 0.3-2.9 0-6.7-0.7-9-0.7-2.2-2.5-5.5-3.9-7.3-1.4-1.9-4.4-4.2-6.6-5.3-2.3-1.1-6.1-1.9-9-1.9-2.7 0-6.8 0.9-9 1.9-2.2 1-5.5 3.4-7.2 5.4zm88.7 41.1c6.4 0.2 9.9 0.9 14 2.8 3 1.3 7.5 4.2 9.9 6.4 2.4 2.1 5.6 5.7 7.1 7.9 1.5 2.2 3.7 6.8 4.9 10.3 2.1 6.1 2.1 7.5 1.6 124.7l-2.7 5.5c-1.4 3-4.8 7.9-7.5 10.9-3.2 3.6-7.1 6.4-11.8 8.8-5.3 2.6-8.8 3.5-14.5 4-5.5 0.4-9.1 0.1-13.5-1.1-3.3-1-8-3-10.5-4.6-2.5-1.6-6.5-5-9-7.7-2.4-2.6-5.5-7.3-6.9-10.3-1.3-3-2.6-8-2.9-11-0.5-5.4-0.4-5.7 9.3-17.9l0.6 10.2c0.4 7.4 1.1 11.4 2.7 14.7 1.1 2.5 3.8 6.3 5.9 8.4 2.1 2.2 6.3 5.1 9.3 6.4 4 1.8 7.2 2.5 12 2.4 4.6 0 8.1-0.7 11.9-2.3 3.1-1.4 7.2-4.3 9.6-6.9 2.3-2.5 5-6.8 6.1-9.5 1.8-4.7 1.9-8 1.9-119l-2.5-5.4c-1.4-3-4.5-7.2-7-9.4-2.5-2.3-6.5-5-9-6-2.8-1.2-6.9-2-11-2-4.9-0.1-7.8 0.5-12 2.4-3 1.4-7.2 4.3-9.3 6.5-2.1 2.1-4.7 5.9-5.9 8.4-1.9 4.1-2.2 4.3-3.2 2.6-0.6-1-2.2-3.2-3.6-4.8-2.2-2.6-2.4-3.2-1.2-5.4 0.6-1.3 3.3-4.7 6-7.5 2.6-2.8 6.7-6.3 9.2-7.7 2.5-1.4 6.5-3.2 9-3.9 2.6-0.7 8.2-1.1 13-0.9zm-70.3 14.1c4.8 0.3 9.7 1.5 14.1 3.2 4.8 2 8.2 4.3 12.1 8.3 3 3 6.5 7.7 7.8 10.5 1.2 2.7 2.7 7.7 3.3 11 0.5 3.3 1 17.9 1 32.5 0 15.2-0.5 29.1-1.1 32.5-0.6 3.3-2.1 8-3.2 10.5-1.2 2.5-4.8 7.2-8.2 10.6-4.4 4.4-7.6 6.7-12 8.4-3.7 1.4-9.1 2.5-14 2.8-5.8 0.3-9.7 0-14-1.3-3.3-0.9-8-2.9-10.5-4.5-2.5-1.5-6.3-4.8-8.4-7.2-2.2-2.3-5.1-6.8-9.1-15.3v-74l3-5.9c1.7-3.2 5.3-8.1 8-10.8 2.8-2.7 7.5-6.1 10.5-7.5 3-1.4 7.3-2.9 9.5-3.4 2.2-0.4 7.3-0.6 11.3-0.4zm-22.7 18.1c-2.5 2.2-5.5 6.1-6.8 8.9-2.2 4.9-2.3 5.6-2.3 38.2 0 32.5 0.1 33.4 2.3 38 1.2 2.6 3.8 6.3 5.7 8.2 1.9 1.9 6 4.6 9 6 4.2 1.9 7.1 2.5 12 2.4 3.6 0 8.5-0.8 11-1.7 2.5-1 6.3-3.2 8.5-5 2.2-1.8 5.3-5.7 7-8.7l3-5.4c0-65.1-0.1-67.3-2-71.5-1.2-2.5-4.1-6.4-6.5-8.8-2.6-2.5-6.7-5.1-9.7-6.3-3.3-1.2-7.7-1.9-11.5-1.8-3.7 0-8.2 0.8-10.8 1.8-2.5 1-6.5 3.6-8.9 5.7z"/><path fill-rule="evenodd" class="b" d="m262 0h25.3l54.5 54.5 54.5-54.5h23.9v158.1h-34.1v-100.2l-44.3 44.1-21.8-21c-12-11.6-22.3-21-22.8-21-0.6 0-1.1 22.1-1.1 98.1l-33.4-0.6zm171.8 0h158.2v34h-124.1v27.3h111.8v34.1h-111.8v28.6h124.1v34.1h-158.2zm170.5 0l23.8 0.1 55.5 55.1 55-55.2h23.8v158.2h-34.1v-100.2l-45 44.9-21.4-21.4c-11.9-11.8-22-21.5-22.5-21.5-0.6 0-1.1 22.1-1.1 98.2h-34zm171.7 0h62.1c60 0 62.2 0.1 69.8 2.9 5.1 1.9 10.2 5.2 14.2 9.2 4.8 4.7 6.9 8.3 8.8 14.4 1.7 5.8 2.4 12.5 2.3 22.5 0 11.1-0.7 16.1-5.7 29.4l2.8 8.1c2.1 6.1 2.9 11.8 3 22.5 0 9.9-0.6 16.8-2.2 22.2-1.8 5.8-4 9.5-8.8 14.3-3.7 3.7-9.4 7.6-13.3 9.2-6.4 2.5-11 2.7-133 3.4zm34.1 61.4c77.8 0 84.7-0.4 86.5-2.1 1.2-1.1 2.5-4.3 3-7.1 0.4-2.9 0.4-7.2 0-9.6-0.5-2.4-2.2-5.3-3.9-6.5-2.6-1.7-9.8-2-44.3-2h-41.3zm0 62.7c62 0 80.3-0.5 82.8-1.3 2.7-0.9 5-2.8 5.8-4.8 0.8-1.9 1.4-5.6 1.4-8.2 0-2.6-0.6-6.3-1.4-8.2-0.8-2.1-3.1-3.9-5.8-4.8-2.5-0.8-20.8-1.4-43.6-1.3h-39.2zm136.4-124.1h158.1v34.1h-124.1v27.3l112.5 0.6 0.7 33.4h-113.2v28.7h124.1v34.1h-158.1zm171.7 0h62.1c59.9 0 62.3 0.1 69.8 2.9 5.4 1.9 9.9 5 14.4 9.5 4.8 5 7 8.6 8.7 14.5 1.4 5.1 2.2 12.8 2.1 22.1 0 10.6-0.7 16.1-2.6 21.2-1.4 3.7-4.4 9.1-6.6 12-2.4 3.1-7.1 6.7-11.5 8.8q-7.5 3.6-17.4 4.3c-5.5 0.4-9.9 1.1-9.9 1.5 0 0.3 13.2 13.8 29.2 29.9 16.1 16.2 29 29.8 28.7 30.4-0.4 0.5-10.9 1-46.3 1l-62.7-62.7h-23.9l-0.7 62-33.4 0.7zm34.1 61.4c83 0 83.9 0 86.6-2.9 2.1-2.2 2.7-4.8 2.7-11 0-7.1-0.4-8.6-3.4-10.9-3.2-2.5-5.7-2.6-44.6-2.6l-41.3 0.1zm-884.2 122.6c2.3 0 5.1 1 6.2 2.3 1.2 1.2 6.9 6.6 23.3 21.6l12.2-11.9c11.4-11.1 12.6-11.9 22.5-11.2v69.5l-14.3 0.7v-20.8c0-11.4-0.4-21.3-1-21.9-0.6-0.5-5.2 3.1-19.5 17.5l-9.2-9.3c-5.1-5.1-9.7-8.7-10.3-8.2-0.5 0.6-1 10.5-0.9 42.7h-5.5c-3 0-6.4-0.3-7.5-0.7-1.7-0.6-2.1-5.8-2.3-34.5-0.1-18.7 0.3-34.3 0.9-34.8 0.7-0.5 3.1-0.9 5.4-1zm115.4-0.1l14.2 0.9v69.5l-14.3 0.7zm65.3 0.1h5.1c4.8 0 6.5 1.4 26.2 21.2 11.7 11.6 21.6 21.1 22.2 21.1 0.6 0 1-9.5 1-42.3h14.9l-0.6 70.2-4.7 0.4c-4.5 0.4-6-0.8-49.1-44l-0.7 43.6-14.3 0.7zm119.9 0h24.2c13.4 0 26.6 0.6 29.4 1.4 2.8 0.7 6.8 2.8 8.8 4.5 2.1 1.8 4.6 5.9 5.6 9.2 1.2 4.1 1.7 11.6 1.4 23.1-0.4 14.7-0.9 17.7-3.6 22.1-2.3 4-4.7 5.8-10.5 7.9-6.6 2.4-10.4 2.7-54.6 2zm15.1 54.6c32.3 0 34.4-0.3 36.8-2.8 2.4-2.3 2.7-4.5 2.7-16.7 0.1-10-0.5-14.7-1.9-16.7-1.7-2.4-3.8-2.7-19.7-3.1l-17.7-0.5zm104.9-54.5h69.6v15h-54.5v12.2l49.7 0.7 0.7 14.3h-50.4v12.3h54.5v16.4l-68.8-0.7zm119.9 0h26.3c14.5 0 28.4 0.6 31 1.3 2.7 0.7 6.4 2.9 8.2 4.9 2.9 3 3.5 5.1 3.9 13.3 0.2 5.4-0.2 11.5-1 13.5-0.8 2.1-3.5 5-5.9 6.5-2.5 1.5-6.2 2.7-8.2 2.7-2.1 0-4 0.5-4.4 1.1-0.3 0.5 4.9 6.5 11.5 13.3 6.7 6.7 11.9 12.7 11.6 13.3-0.4 0.5-4.5 1-17.7 1l-14.3-14.4c-13.9-13.9-14.5-14.3-25.2-13.6l-0.7 28-14.3-0.7zm14.8 22l0.2 5.3 38.9-0.7c0.6-7.6 0.1-10-1-10.6-1-0.5-9.5-1-18.9-1-9.5 0-17.7 0.4-18.3 0.9-0.6 0.5-1 3.3-0.9 6.1zm171.9-22l27 0.1c17.2 0 28.6 0.6 31.6 1.7 2.5 0.9 5.9 3.3 7.5 5.5 1.9 2.6 3 6.5 3.4 12.2 0.3 5.8-0.2 9.9-1.7 13.2-1.2 2.6-4.1 5.9-6.3 7.2-3.5 2-7.6 2.4-46.4 2.4l-0.7 27.9h-13.6zm15 27.3l38.9-0.7c0.6-6.3-0.1-9-1-10-1.3-1.2-6.8-1.7-19.8-1.7l-18.1 0.1zm104.9-27.3l27 0.1c17.1 0.1 28.7 0.7 31.7 1.7 2.7 1 6 3.6 7.8 6.4 2.5 3.8 3.2 6.6 3.2 13.3-0.1 4.8-1 10.3-2.1 12.6-1.1 2.3-3.9 5-6.2 6.2-2.2 1.1-5.6 2-7.5 2-1.8 0-3.6 0.5-4 1-0.3 0.6 4.9 6.6 11.5 13.3 6.7 6.8 11.9 12.7 11.6 13.3-0.4 0.6-4.5 1-17.7 1l-14.3-14.3c-13.6-13.5-14.6-14.2-25.9-14.3l-0.7 28h-13.6zm15 27.2l38.9-0.7c0.6-6.3-0.1-8.9-1-9.9-1.3-1.3-6.8-1.8-19.8-1.7h-18.1zm141.8-26.9c13.9 0.3 18 0.9 22.4 3.1 4 2 6.2 4.4 8.5 9.5 2.7 5.9 3.2 9.1 3.2 22.2 0 12-0.6 16.6-2.6 21.1-1.4 3.2-3.7 6.9-5.1 8.1-1.4 1.3-5.3 3.3-8.7 4.5-3.9 1.4-10.8 2.1-19.1 2.1-8.2 0-15.1-0.7-19-2.1-3.4-1.2-7.3-3.2-8.7-4.5-1.4-1.2-3.5-4.1-4.7-6.4-1.3-2.6-2.3-9.1-2.7-17.7-0.4-7.5 0.1-17.2 0.9-21.5 0.9-4.4 2.9-9.3 4.6-11.3 1.7-1.9 5.5-4.3 8.5-5.4 3.9-1.4 10.3-1.9 22.5-1.7zm-21.1 35.1c0 13.7 0.3 15.4 2.7 17.2 2 1.4 6.8 2 17.3 1.9 11 0 15.1-0.5 16.7-2 1.7-1.7 2.1-5.3 2.1-17.8 0-14.7-0.2-15.8-3-17.7-2.2-1.5-6.8-2-16.2-2-10.9 0-13.7 0.4-16.4 2.6-3 2.4-3.2 3.4-3.2 17.8z"/></svg>