<svg version="1.2" xmlns="http://www.w3.org/2000/svg" viewBox="0 0 1050 261" width="1050" height="261">
	<style>
		.s0 { fill: #93192d } 
		.s1 { fill: #f8f8f8 } 
		.s2 { fill: #ffffff } 
	</style>
	<g id="&lt;Red Slogan&gt;">
		<path id="&lt;Compound Path&gt;" class="s0" d="m285.12 213.23h4.99v36.47h-4.99zm2.57 17.46h11.37q1.61 0 2.84-0.78 1.22-0.78 1.89-2.21 0.67-1.43 0.67-3.28 0-1.88-0.67-3.31-0.67-1.43-1.89-2.22-1.23-0.79-2.84-0.79h-11.37v-4.87h11.2q3.18 0 5.6 1.39 2.42 1.39 3.75 3.93 1.34 2.53 1.34 5.87 0 3.33-1.34 5.85-1.33 2.52-3.75 3.9-2.42 1.38-5.6 1.38h-11.2z"/>
		<path id="&lt;Compound Path&gt;" fill-rule="evenodd" class="s0" d="m323.7 248.75q-2.34-1.33-3.58-3.88-1.23-2.54-1.23-6.13v-4.24q0-3.54 1.23-6.06 1.24-2.52 3.58-3.84 2.35-1.31 5.65-1.31 3.3 0 5.65 1.31 2.35 1.32 3.58 3.84 1.24 2.52 1.24 6.06v4.31q0 3.56-1.24 6.09-1.23 2.52-3.58 3.85-2.35 1.33-5.65 1.33-3.3 0-5.65-1.33zm9.7-5.22q1.43-1.68 1.43-4.72v-4.31q0-3.04-1.43-4.69-1.43-1.66-4.05-1.66-2.61 0-4.05 1.66-1.43 1.65-1.43 4.69v4.31q0 3.04 1.43 4.72 1.44 1.68 4.05 1.68 2.62 0 4.05-1.68z"/>
		<path id="&lt;Compound Path&gt;" class="s0" d="m349.74 223.66h5.21l4.5 18.59 6.33-18.59h3.48l6.33 18.59 4.5-18.59h5.21l-7.83 26.04h-3.76l-6.19-17.99-6.19 17.99h-3.76z"/>
		<path id="&lt;Compound Path&gt;" class="s0" d="m400.57 248.72q-2.49-1.35-3.8-3.97-1.31-2.63-1.31-6.34v-2.93q0-3.87 1.26-6.6 1.26-2.73 3.66-4.16 2.39-1.43 5.77-1.43 3.18 0 5.43 1.63 2.25 1.63 3.43 4.71 1.19 3.09 1.19 7.4v1.71h-17.12v-4.12h12.37q-0.22-3.18-1.6-4.95-1.38-1.77-3.7-1.77-2.84 0-4.39 1.91-1.55 1.9-1.55 5.39v3.31q0 3.24 1.66 4.97 1.66 1.73 4.72 1.73 1.51 0 3.01-0.63 1.49-0.62 2.66-1.75l3.28 3.36q-1.88 1.85-4.23 2.87-2.35 1.02-4.72 1.02-3.52 0-6.02-1.36z"/>
		<path id="&lt;Compound Path&gt;" class="s0" d="m429.05 223.66h4.99v26.04h-4.99zm12.31 4.92q-1.01-0.43-2.33-0.43-2.37 0-3.68 1.34-1.31 1.34-1.31 3.73l-0.51-5.02q1.17-2.33 3.03-3.62 1.86-1.3 4.11-1.3 1.74 0 3.14 0.52 1.41 0.51 2.46 1.52l-3.25 4.51q-0.66-0.83-1.66-1.25z"/>
		<path id="&lt;Compound Path&gt;" class="s0" d="m456.44 213.23h4.99v5.11h-4.99zm0 10.44h4.99v26.04h-4.99z"/>
		<path id="&lt;Compound Path&gt;" class="s0" d="m475.02 223.66h4.99v26.04h-4.99zm15.4 10.26q0-2.76-1.39-4.27-1.4-1.5-3.91-1.5-2.45 0-3.78 1.33-1.34 1.33-1.33 3.74l-0.52-5.02q1.17-2.36 3.07-3.64 1.89-1.28 4.19-1.28 4.14 0 6.4 2.77 2.26 2.78 2.26 7.84v15.81h-4.99z"/>
		<path id="&lt;Compound Path&gt;" class="s0" d="m512.29 248.91q-1.97-1.24-3-3.63-1.02-2.38-1.02-5.71v-5.75q0-3.36 1-5.74 1-2.39 2.92-3.63 1.92-1.24 4.61-1.24 2.25 0 4.12 1.21 1.87 1.2 3.02 3.38l-0.51 5.32q0-1.66-0.59-2.84-0.59-1.17-1.7-1.79-1.11-0.61-2.7-0.61-2.47 0-3.83 1.58-1.36 1.58-1.36 4.44v5.67q0 2.83 1.36 4.37 1.36 1.55 3.83 1.55 1.59-0.01 2.7-0.64 1.11-0.64 1.7-1.85 0.59-1.2 0.59-2.88l0.34 5.49q-0.76 1.93-2.48 3.24-1.73 1.3-4.24 1.3-2.79 0-4.76-1.24zm0.1 10.28q-2.27-1.09-3.51-3.07l3.37-3.13q0.98 1.37 2.34 2.13 1.35 0.75 2.85 0.75 2.86 0 4.42-1.62 1.57-1.62 1.57-4.58v-26.01h4.99v25.26q0 3.59-1.29 6.15-1.28 2.56-3.73 3.89-2.44 1.32-5.89 1.32-2.86 0-5.12-1.09z"/>
		<path id="&lt;Compound Path&gt;" class="s0" d="m559.73 213.23h6.06v36.47h-6.06zm4.03 30.5h4.55q1.22 0 1.89-0.76 0.66-0.77 0.66-2.15v-18.71q0-1.38-0.66-2.15-0.67-0.76-1.89-0.76h-4.55v-5.97h5.16q2.55 0 4.36 0.97 1.81 0.96 2.76 2.8 0.95 1.85 0.95 4.41v20.11q0 2.56-0.95 4.41-0.95 1.84-2.78 2.81-1.82 0.96-4.36 0.96h-5.14z"/>
		<path id="&lt;Compound Path&gt;" fill-rule="evenodd" class="s0" d="m592.66 213.23h4.26l8.48 36.47h-6.01l-1.09-5.67h1.33v-5.82h-2.45l-2.39-12.41-2.39 12.41h-2.45v5.82h1.33l-1.09 5.67h-6.01zm5.63 30.8l-1.12-5.82h-4.77l-1.12 5.82z"/>
		<path id="&lt;Compound Path&gt;" class="s0" d="m616.03 248.98q-1.9-1.09-2.92-3.17-1.01-2.08-1.01-5.01v-18.67q0-2.93 1.01-5.01 1.02-2.09 2.92-3.18 1.91-1.09 4.6-1.09 2.69 0 4.61 1.09 1.92 1.09 2.92 3.19 1 2.09 1.01 5.03v2.93h-6.14v-2.93q0-0.93-0.27-1.61-0.27-0.67-0.82-1.04-0.55-0.36-1.31-0.36-0.73 0-1.27 0.35-0.54 0.35-0.82 1.03-0.28 0.67-0.28 1.6v18.67q0 0.92 0.28 1.59 0.28 0.66 0.82 1.01 0.54 0.36 1.27 0.36 0.78 0 1.32-0.36 0.54-0.35 0.81-1.01 0.27-0.67 0.27-1.62v-2.93h6.14v2.93q-0.01 2.93-1.01 5.03-1 2.09-2.92 3.18-1.92 1.1-4.61 1.1-2.69 0-4.6-1.1z"/>
		<path id="&lt;Compound Path&gt;" class="s0" d="m644.06 248.91q-1.97-1.24-2.99-3.63-1.03-2.38-1.03-5.71v-5.75q0-3.36 1-5.74 1-2.39 2.93-3.63 1.91-1.24 4.6-1.24 2.25 0 4.13 1.21 1.87 1.2 3.02 3.38l-0.52 5.32q0-1.66-0.59-2.84-0.58-1.17-1.69-1.79-1.12-0.61-2.71-0.61-2.47 0-3.82 1.58-1.36 1.58-1.36 4.44v5.67q0 2.83 1.36 4.37 1.35 1.55 3.82 1.55 1.59-0.01 2.71-0.64 1.11-0.64 1.69-1.85 0.59-1.2 0.59-2.88l0.34 5.49q-0.75 1.93-2.48 3.24-1.72 1.3-4.24 1.3-2.79 0-4.76-1.24zm11.14-35.68h4.99v36.47h-4.99z"/>
		<path id="&lt;Compound Path&gt;" class="s0" d="m673.78 213.23h4.99v36.47h-4.99zm7.24 35.68q-1.76-1.17-2.59-3.3l0.34-5.44q0 1.68 0.59 2.86 0.58 1.18 1.69 1.8 1.12 0.63 2.71 0.63 2.47 0 3.82-1.54 1.36-1.54 1.36-4.35v-5.65q0-2.86-1.36-4.44-1.35-1.58-3.82-1.58-1.59 0-2.71 0.61-1.11 0.6-1.69 1.76-0.59 1.17-0.59 2.8l-0.51-5.02q1.14-2.28 3-3.52 1.86-1.24 4.13-1.24 2.7 0 4.62 1.24 1.91 1.24 2.92 3.62 1 2.39 1 5.75v5.67q0 3.31-1.03 5.67-1.02 2.35-3.01 3.6-1.98 1.24-4.74 1.24-2.37 0-4.13-1.17z"/>
		<path id="&lt;Compound Path&gt;" class="s0" d="m732.26 235.23q-1.66 1.55-1.66 4.39 0 2.78 1.77 4.32 1.77 1.55 5 1.55 3.06 0 5.25-1.69 2.19-1.68 3.32-4.87 1.14-3.2 1.14-7.72h4.74q0 5.97-1.82 10.2-1.82 4.23-5.32 6.45-3.49 2.22-8.41 2.22-3.32 0-5.68-1.23-2.36-1.23-3.6-3.58-1.23-2.34-1.23-5.65 0-4.47 2.39-7.15 2.4-2.69 6.78-3.11l2.05 4.31q-3.06 0-4.72 1.56zm2.35-0.03q-1.71-1.83-2.91-3.81-1.2-1.98-1.84-4.1-0.63-2.12-0.63-4.33 0-4.79 2.49-7.41 2.5-2.62 7.05-2.62 4.52 0 7 2.52 2.48 2.52 2.48 7.13v0.51h-4.99v-0.51q0-2.23-1.17-3.45-1.17-1.21-3.32-1.21-2.18 0-3.37 1.32-1.18 1.31-1.18 3.72 0 1.46 0.46 3.01 0.47 1.56 1.37 3.09 0.91 1.53 2.18 2.9l16.26 17.74h-6.33z"/>
		<path id="&lt;Compound Path&gt;" class="s0" d="m782.62 213.23h6.07v6.17h-6.07zm0 10.43h6.07v26.04h-6.07z"/>
		<path id="&lt;Compound Path&gt;" class="s0" d="m816.56 213.23h5.67v36.47h-5.4v-25.46l0.36 1.6-5.16 17.41h-3.03l-5.16-16.9 0.49-2.11v25.46h-5.53v-36.47h5.82l5.9 19.81z"/>
		<path id="&lt;Compound Path&gt;" class="s0" d="m836.01 249.13q-1.8-0.94-2.76-2.73-0.95-1.79-0.95-4.33v-10.38q0-2.68 0.93-4.59 0.93-1.91 2.68-2.9 1.75-0.99 4.22-0.99 2.51 0 4.29 0.97 1.77 0.96 2.71 2.82 0.94 1.86 0.94 4.49v7.37h-10.88v-4.54h5.01v-3.11q0-1.15-0.55-1.8-0.55-0.66-1.52-0.66-0.93 0-1.44 0.69-0.5 0.69-0.5 1.95v10.88q0 1.08 0.55 1.66 0.55 0.58 1.58 0.58 0.95 0 1.47-0.48 0.51-0.48 0.51-1.35v-0.91l5.85 0.05v0.73q0 3.59-2.06 5.56-2.05 1.97-5.77 1.97-2.52 0-4.31-0.95z"/>
		<path id="&lt;Compound Path&gt;" class="s0" d="m858.46 223.66h6.14v26.04h-6.14zm10.22 7.65q0-1.23-0.53-1.87-0.52-0.64-1.55-0.64-0.98 0-1.49 0.63-0.51 0.63-0.51 1.86l-0.52-3.24q0.81-2.33 2.3-3.59 1.49-1.25 3.35-1.25 1.62 0 2.75 0.7 1.14 0.7 1.73 2.06 0.58 1.35 0.58 3.31v20.42h-6.11zm10.2 0q0-1.23-0.52-1.87-0.51-0.64-1.49-0.64-1.02 0-1.55 0.63-0.53 0.62-0.53 1.85l-0.44-3.33q0.83-2.31 2.33-3.53 1.49-1.22 3.32-1.22 1.57 0.01 2.69 0.78 1.13 0.78 1.73 2.26 0.6 1.48 0.6 3.56v19.89h-6.14z"/>
		<path id="&lt;Compound Path&gt;" class="s0" d="m895.87 213.23h6.06v36.47h-6.06zm7.64 35.68q-1.29-1.17-1.92-3.3l0.34-3.66q0 0.8 0.23 1.37 0.24 0.56 0.68 0.85 0.44 0.29 1.05 0.29 0.9 0 1.39-0.68 0.49-0.68 0.49-1.93v-10.54q0-1.17-0.49-1.83-0.49-0.65-1.39-0.65-0.64 0-1.07 0.26-0.42 0.27-0.66 0.81-0.23 0.54-0.23 1.31l-0.51-3.23q0.85-2.26 2.2-3.51 1.34-1.26 2.98-1.26 1.61 0 2.76 0.84 1.15 0.84 1.75 2.45 0.6 1.6 0.6 3.89v12.36q0 2.31-0.61 3.97-0.61 1.65-1.78 2.5-1.18 0.86-2.82 0.86-1.71 0-2.99-1.17z"/>
		<path id="&lt;Compound Path&gt;" class="s0" d="m925.19 249.13q-1.79-0.94-2.75-2.73-0.95-1.79-0.95-4.33v-10.38q0-2.68 0.93-4.59 0.93-1.91 2.67-2.9 1.75-0.99 4.22-0.99 2.52 0 4.29 0.97 1.78 0.96 2.72 2.82 0.94 1.86 0.94 4.49v7.37h-10.88v-4.54h5.01v-3.11q0-1.15-0.55-1.8-0.55-0.66-1.53-0.66-0.93 0-1.43 0.69-0.5 0.69-0.5 1.95v10.88q0 1.08 0.55 1.66 0.55 0.58 1.58 0.58 0.95 0 1.47-0.48 0.51-0.48 0.51-1.35v-0.91l5.84 0.05v0.73q0 3.59-2.05 5.56-2.06 1.97-5.77 1.97-2.52 0-4.32-0.95z"/>
		<path id="&lt;Compound Path&gt;" class="s0" d="m947.65 223.66h6.06v26.04h-6.06zm11.47 6.12q-0.4 0-0.86 0-2.15 0-3.35 1.33-1.2 1.33-1.2 3.61l-0.51-6.52q1.1-2.33 2.82-3.66 1.73-1.33 3.78-1.33v6.57q-0.29 0-0.68 0z"/>
		<path id="&lt;Compound Path&gt;" class="s0" d="m971.85 249.07q-1.81-1-2.81-2.79-1-1.8-1-4.16v-0.42l5.62-0.05v0.4q0 1.08 0.65 1.77 0.65 0.69 1.67 0.69 1.03 0 1.65-0.64 0.63-0.64 0.63-1.65 0-0.82-0.46-1.4-0.45-0.58-1.13-0.94-0.69-0.36-1.91-0.87-0.22-0.1-0.45-0.18-0.23-0.09-0.46-0.19-0.04-0.03-0.12-0.05-0.07-0.03-0.12-0.05-1.52-0.68-2.65-1.56-1.14-0.88-1.87-2.36-0.74-1.48-0.74-3.66 0-2.28 0.93-4.05 0.93-1.77 2.62-2.73 1.69-0.97 3.86-0.97 2.23 0 3.92 0.94 1.68 0.94 2.62 2.67 0.94 1.73 0.95 3.99v0.45l-5.65 0.08v-0.53q0-0.9-0.51-1.47-0.5-0.56-1.3-0.56-0.79 0-1.27 0.6-0.49 0.6-0.49 1.56 0 0.95 0.49 1.56 0.48 0.62 1.24 1 0.76 0.37 2.03 0.82 0.05 0.03 0.09 0.04 0.03 0.01 0.08 0.04 0.05 0.02 0.1 0.04 0.05 0.01 0.1 0.03 1.76 0.63 2.95 1.4 1.18 0.76 2 2.29 0.82 1.53 0.82 4.06 0 2.34-0.99 4.12-0.99 1.78-2.8 2.76-1.81 0.98-4.16 0.98-2.32 0-4.13-1.01z"/>
		<path id="&lt;Compound Path&gt;" class="s0" d="m998.14 248.91q-1.97-1.24-2.99-3.63-1.03-2.38-1.03-5.71v-5.75q0-3.36 1-5.74 1-2.39 2.93-3.63 1.91-1.24 4.6-1.24 2.25 0 4.13 1.21 1.87 1.2 3.02 3.38l-0.52 5.32q0-1.66-0.59-2.84-0.58-1.17-1.69-1.79-1.12-0.61-2.71-0.61-2.47 0-3.82 1.58-1.36 1.58-1.36 4.44v5.67q0 2.83 1.36 4.37 1.35 1.55 3.82 1.55 1.59-0.01 2.71-0.64 1.11-0.64 1.69-1.85 0.59-1.2 0.59-2.88l0.34 5.49q-0.75 1.93-2.48 3.24-1.72 1.3-4.24 1.3-2.79 0-4.76-1.24zm11.14-35.68h4.99v36.47h-4.99z"/>
		<path id="&lt;Compound Path&gt;" class="s0" d="m1027.86 213.23h4.99v36.47h-4.99zm7.24 35.68q-1.76-1.17-2.59-3.3l0.34-5.44q0 1.68 0.59 2.86 0.58 1.18 1.69 1.8 1.12 0.63 2.71 0.63 2.47 0 3.82-1.54 1.36-1.54 1.36-4.35v-5.65q0-2.86-1.36-4.44-1.35-1.58-3.82-1.58-1.59 0-2.71 0.61-1.11 0.6-1.69 1.76-0.59 1.17-0.59 2.8l-0.51-5.02q1.14-2.28 3-3.52 1.86-1.24 4.13-1.24 2.7 0 4.62 1.24 1.91 1.24 2.92 3.62 1 2.39 1 5.75v5.67q0 3.31-1.03 5.67-1.02 2.35-3.01 3.6-1.98 1.24-4.74 1.24-2.37 0-4.13-1.17z"/>
	</g>
	<g id="&lt;Blue Slogan&gt;">
		<path id="&lt;Compound Path&gt;" class="s0" d="m285.12 213.23h4.99v36.47h-4.99zm2.57 17.46h11.37q1.61 0 2.84-0.78 1.22-0.78 1.89-2.21 0.67-1.43 0.67-3.28 0-1.88-0.67-3.31-0.67-1.43-1.89-2.22-1.23-0.79-2.84-0.79h-11.37v-4.87h11.2q3.18 0 5.6 1.39 2.42 1.39 3.75 3.93 1.34 2.53 1.34 5.87 0 3.33-1.34 5.85-1.33 2.52-3.75 3.9-2.42 1.38-5.6 1.38h-11.2z"/>
		<path id="&lt;Compound Path&gt;" fill-rule="evenodd" class="s0" d="m323.7 248.75q-2.34-1.33-3.58-3.88-1.23-2.54-1.23-6.13v-4.24q0-3.54 1.23-6.06 1.24-2.52 3.58-3.84 2.35-1.31 5.65-1.31 3.3 0 5.65 1.31 2.35 1.32 3.58 3.84 1.24 2.52 1.24 6.06v4.31q0 3.56-1.24 6.09-1.23 2.52-3.58 3.85-2.35 1.33-5.65 1.33-3.3 0-5.65-1.33zm9.7-5.22q1.43-1.68 1.43-4.72v-4.31q0-3.04-1.43-4.69-1.43-1.66-4.05-1.66-2.61 0-4.05 1.66-1.43 1.65-1.43 4.69v4.31q0 3.04 1.43 4.72 1.44 1.68 4.05 1.68 2.62 0 4.05-1.68z"/>
		<path id="&lt;Compound Path&gt;" class="s0" d="m349.74 223.66h5.21l4.5 18.59 6.33-18.59h3.48l6.33 18.59 4.5-18.59h5.21l-7.83 26.04h-3.76l-6.19-17.99-6.19 17.99h-3.76z"/>
		<path id="&lt;Compound Path&gt;" class="s0" d="m400.57 248.72q-2.49-1.35-3.8-3.97-1.31-2.63-1.31-6.34v-2.93q0-3.87 1.26-6.6 1.26-2.73 3.66-4.16 2.39-1.43 5.77-1.43 3.18 0 5.43 1.63 2.25 1.63 3.43 4.71 1.19 3.09 1.19 7.4v1.71h-17.12v-4.12h12.37q-0.22-3.18-1.6-4.95-1.38-1.77-3.7-1.77-2.84 0-4.39 1.91-1.55 1.9-1.55 5.39v3.31q0 3.24 1.66 4.97 1.66 1.73 4.72 1.73 1.51 0 3.01-0.63 1.49-0.62 2.66-1.75l3.28 3.36q-1.88 1.85-4.23 2.87-2.35 1.02-4.72 1.02-3.52 0-6.02-1.36z"/>
		<path id="&lt;Compound Path&gt;" class="s0" d="m429.05 223.66h4.99v26.04h-4.99zm12.31 4.92q-1.01-0.43-2.33-0.43-2.37 0-3.68 1.34-1.31 1.34-1.31 3.73l-0.51-5.02q1.17-2.33 3.03-3.62 1.86-1.3 4.11-1.3 1.74 0 3.14 0.52 1.41 0.51 2.46 1.52l-3.25 4.51q-0.66-0.83-1.66-1.25z"/>
		<path id="&lt;Compound Path&gt;" class="s0" d="m456.44 213.23h4.99v5.11h-4.99zm0 10.44h4.99v26.04h-4.99z"/>
		<path id="&lt;Compound Path&gt;" class="s0" d="m475.02 223.66h4.99v26.04h-4.99zm15.4 10.26q0-2.76-1.39-4.27-1.4-1.5-3.91-1.5-2.45 0-3.78 1.33-1.34 1.33-1.33 3.74l-0.52-5.02q1.17-2.36 3.07-3.64 1.89-1.28 4.19-1.28 4.14 0 6.4 2.77 2.26 2.78 2.26 7.84v15.81h-4.99z"/>
		<path id="&lt;Compound Path&gt;" class="s0" d="m512.29 248.91q-1.97-1.24-3-3.63-1.02-2.38-1.02-5.71v-5.75q0-3.36 1-5.74 1-2.39 2.92-3.63 1.92-1.24 4.61-1.24 2.25 0 4.12 1.21 1.87 1.2 3.02 3.38l-0.51 5.32q0-1.66-0.59-2.84-0.59-1.17-1.7-1.79-1.11-0.61-2.7-0.61-2.47 0-3.83 1.58-1.36 1.58-1.36 4.44v5.67q0 2.83 1.36 4.37 1.36 1.55 3.83 1.55 1.59-0.01 2.7-0.64 1.11-0.64 1.7-1.85 0.59-1.2 0.59-2.88l0.34 5.49q-0.76 1.93-2.48 3.24-1.73 1.3-4.24 1.3-2.79 0-4.76-1.24zm0.1 10.28q-2.27-1.09-3.51-3.07l3.37-3.13q0.98 1.37 2.34 2.13 1.35 0.75 2.85 0.75 2.86 0 4.42-1.62 1.57-1.62 1.57-4.58v-26.01h4.99v25.26q0 3.59-1.29 6.15-1.28 2.56-3.73 3.89-2.44 1.32-5.89 1.32-2.86 0-5.12-1.09z"/>
		<path id="&lt;Compound Path&gt;" class="s0" d="m559.73 213.23h6.06v36.47h-6.06zm4.03 30.5h4.55q1.22 0 1.89-0.76 0.66-0.77 0.66-2.15v-18.71q0-1.38-0.66-2.15-0.67-0.76-1.89-0.76h-4.55v-5.97h5.16q2.55 0 4.36 0.97 1.81 0.96 2.76 2.8 0.95 1.85 0.95 4.41v20.11q0 2.56-0.95 4.41-0.95 1.84-2.78 2.81-1.82 0.96-4.36 0.96h-5.14z"/>
		<path id="&lt;Compound Path&gt;" fill-rule="evenodd" class="s0" d="m592.66 213.23h4.26l8.48 36.47h-6.01l-1.09-5.67h1.33v-5.82h-2.45l-2.39-12.41-2.39 12.41h-2.45v5.82h1.33l-1.09 5.67h-6.01zm5.63 30.8l-1.12-5.82h-4.77l-1.12 5.82z"/>
		<path id="&lt;Compound Path&gt;" class="s0" d="m616.03 248.98q-1.9-1.09-2.92-3.17-1.01-2.08-1.01-5.01v-18.67q0-2.93 1.01-5.01 1.02-2.09 2.92-3.18 1.91-1.09 4.6-1.09 2.69 0 4.61 1.09 1.92 1.09 2.92 3.19 1 2.09 1.01 5.03v2.93h-6.14v-2.93q0-0.93-0.27-1.61-0.27-0.67-0.82-1.04-0.55-0.36-1.31-0.36-0.73 0-1.27 0.35-0.54 0.35-0.82 1.03-0.28 0.67-0.28 1.6v18.67q0 0.92 0.28 1.59 0.28 0.66 0.82 1.01 0.54 0.36 1.27 0.36 0.78 0 1.32-0.36 0.54-0.35 0.81-1.01 0.27-0.67 0.27-1.62v-2.93h6.14v2.93q-0.01 2.93-1.01 5.03-1 2.09-2.92 3.18-1.92 1.1-4.61 1.1-2.69 0-4.6-1.1z"/>
		<path id="&lt;Compound Path&gt;" class="s0" d="m644.06 248.91q-1.97-1.24-2.99-3.63-1.03-2.38-1.03-5.71v-5.75q0-3.36 1-5.74 1-2.39 2.93-3.63 1.91-1.24 4.6-1.24 2.25 0 4.13 1.21 1.87 1.2 3.02 3.38l-0.52 5.32q0-1.66-0.59-2.84-0.58-1.17-1.69-1.79-1.12-0.61-2.71-0.61-2.47 0-3.82 1.58-1.36 1.58-1.36 4.44v5.67q0 2.83 1.36 4.37 1.35 1.55 3.82 1.55 1.59-0.01 2.71-0.64 1.11-0.64 1.69-1.85 0.59-1.2 0.59-2.88l0.34 5.49q-0.75 1.93-2.48 3.24-1.72 1.3-4.24 1.3-2.79 0-4.76-1.24zm11.14-35.68h4.99v36.47h-4.99z"/>
		<path id="&lt;Compound Path&gt;" class="s0" d="m673.78 213.23h4.99v36.47h-4.99zm7.24 35.68q-1.76-1.17-2.59-3.3l0.34-5.44q0 1.68 0.59 2.86 0.58 1.18 1.69 1.8 1.12 0.63 2.71 0.63 2.47 0 3.82-1.54 1.36-1.54 1.36-4.35v-5.65q0-2.86-1.36-4.44-1.35-1.58-3.82-1.58-1.59 0-2.71 0.61-1.11 0.6-1.69 1.76-0.59 1.17-0.59 2.8l-0.51-5.02q1.14-2.28 3-3.52 1.86-1.24 4.13-1.24 2.7 0 4.62 1.24 1.91 1.24 2.92 3.62 1 2.39 1 5.75v5.67q0 3.31-1.03 5.67-1.02 2.35-3.01 3.6-1.98 1.24-4.74 1.24-2.37 0-4.13-1.17z"/>
		<path id="&lt;Compound Path&gt;" class="s0" d="m732.26 235.23q-1.66 1.55-1.66 4.39 0 2.78 1.77 4.32 1.77 1.55 5 1.55 3.06 0 5.25-1.69 2.19-1.68 3.32-4.87 1.14-3.2 1.14-7.72h4.74q0 5.97-1.82 10.2-1.82 4.23-5.32 6.45-3.49 2.22-8.41 2.22-3.32 0-5.68-1.23-2.36-1.23-3.6-3.58-1.23-2.34-1.23-5.65 0-4.47 2.39-7.15 2.4-2.69 6.78-3.11l2.05 4.31q-3.06 0-4.72 1.56zm2.35-0.03q-1.71-1.83-2.91-3.81-1.2-1.98-1.84-4.1-0.63-2.12-0.63-4.33 0-4.79 2.49-7.41 2.5-2.62 7.05-2.62 4.52 0 7 2.52 2.48 2.52 2.48 7.13v0.51h-4.99v-0.51q0-2.23-1.17-3.45-1.17-1.21-3.32-1.21-2.18 0-3.37 1.32-1.18 1.31-1.18 3.72 0 1.46 0.46 3.01 0.47 1.56 1.37 3.09 0.91 1.53 2.18 2.9l16.26 17.74h-6.33z"/>
		<path id="&lt;Compound Path&gt;" class="s0" d="m782.62 213.23h6.07v6.17h-6.07zm0 10.43h6.07v26.04h-6.07z"/>
		<path id="&lt;Compound Path&gt;" class="s0" d="m816.56 213.23h5.67v36.47h-5.4v-25.46l0.36 1.6-5.16 17.41h-3.03l-5.16-16.9 0.49-2.11v25.46h-5.53v-36.47h5.82l5.9 19.81z"/>
		<path id="&lt;Compound Path&gt;" class="s0" d="m836.01 249.13q-1.8-0.94-2.76-2.73-0.95-1.79-0.95-4.33v-10.38q0-2.68 0.93-4.59 0.93-1.91 2.68-2.9 1.75-0.99 4.22-0.99 2.51 0 4.29 0.97 1.77 0.96 2.71 2.82 0.94 1.86 0.94 4.49v7.37h-10.88v-4.54h5.01v-3.11q0-1.15-0.55-1.8-0.55-0.66-1.52-0.66-0.93 0-1.44 0.69-0.5 0.69-0.5 1.95v10.88q0 1.08 0.55 1.66 0.55 0.58 1.58 0.58 0.95 0 1.47-0.48 0.51-0.48 0.51-1.35v-0.91l5.85 0.05v0.73q0 3.59-2.06 5.56-2.05 1.97-5.77 1.97-2.52 0-4.31-0.95z"/>
		<path id="&lt;Compound Path&gt;" class="s0" d="m858.46 223.66h6.14v26.04h-6.14zm10.22 7.65q0-1.23-0.53-1.87-0.52-0.64-1.55-0.64-0.98 0-1.49 0.63-0.51 0.63-0.51 1.86l-0.52-3.24q0.81-2.33 2.3-3.59 1.49-1.25 3.35-1.25 1.62 0 2.75 0.7 1.14 0.7 1.73 2.06 0.58 1.35 0.58 3.31v20.42h-6.11zm10.2 0q0-1.23-0.52-1.87-0.51-0.64-1.49-0.64-1.02 0-1.55 0.63-0.53 0.62-0.53 1.85l-0.44-3.33q0.83-2.31 2.33-3.53 1.49-1.22 3.32-1.22 1.57 0.01 2.69 0.78 1.13 0.78 1.73 2.26 0.6 1.48 0.6 3.56v19.89h-6.14z"/>
		<path id="&lt;Compound Path&gt;" class="s0" d="m895.87 213.23h6.06v36.47h-6.06zm7.64 35.68q-1.29-1.17-1.92-3.3l0.34-3.66q0 0.8 0.23 1.37 0.24 0.56 0.68 0.85 0.44 0.29 1.05 0.29 0.9 0 1.39-0.68 0.49-0.68 0.49-1.93v-10.54q0-1.17-0.49-1.83-0.49-0.65-1.39-0.65-0.64 0-1.07 0.26-0.42 0.27-0.66 0.81-0.23 0.54-0.23 1.31l-0.51-3.23q0.85-2.26 2.2-3.51 1.34-1.26 2.98-1.26 1.61 0 2.76 0.84 1.15 0.84 1.75 2.45 0.6 1.6 0.6 3.89v12.36q0 2.31-0.61 3.97-0.61 1.65-1.78 2.5-1.18 0.86-2.82 0.86-1.71 0-2.99-1.17z"/>
		<path id="&lt;Compound Path&gt;" class="s0" d="m925.19 249.13q-1.79-0.94-2.75-2.73-0.95-1.79-0.95-4.33v-10.38q0-2.68 0.93-4.59 0.93-1.91 2.67-2.9 1.75-0.99 4.22-0.99 2.52 0 4.29 0.97 1.78 0.96 2.72 2.82 0.94 1.86 0.94 4.49v7.37h-10.88v-4.54h5.01v-3.11q0-1.15-0.55-1.8-0.55-0.66-1.53-0.66-0.93 0-1.43 0.69-0.5 0.69-0.5 1.95v10.88q0 1.08 0.55 1.66 0.55 0.58 1.58 0.58 0.95 0 1.47-0.48 0.51-0.48 0.51-1.35v-0.91l5.84 0.05v0.73q0 3.59-2.05 5.56-2.06 1.97-5.77 1.97-2.52 0-4.32-0.95z"/>
		<path id="&lt;Compound Path&gt;" class="s0" d="m947.65 223.66h6.06v26.04h-6.06zm11.47 6.12q-0.4 0-0.86 0-2.15 0-3.35 1.33-1.2 1.33-1.2 3.61l-0.51-6.52q1.1-2.33 2.82-3.66 1.73-1.33 3.78-1.33v6.57q-0.29 0-0.68 0z"/>
		<path id="&lt;Compound Path&gt;" class="s0" d="m971.85 249.07q-1.81-1-2.81-2.79-1-1.8-1-4.16v-0.42l5.62-0.05v0.4q0 1.08 0.65 1.77 0.65 0.69 1.67 0.69 1.03 0 1.65-0.64 0.63-0.64 0.63-1.65 0-0.82-0.46-1.4-0.45-0.58-1.13-0.94-0.69-0.36-1.91-0.87-0.22-0.1-0.45-0.18-0.23-0.09-0.46-0.19-0.04-0.03-0.12-0.05-0.07-0.03-0.12-0.05-1.52-0.68-2.65-1.56-1.14-0.88-1.87-2.36-0.74-1.48-0.74-3.66 0-2.28 0.93-4.05 0.93-1.77 2.62-2.73 1.69-0.97 3.86-0.97 2.23 0 3.92 0.94 1.68 0.94 2.62 2.67 0.94 1.73 0.95 3.99v0.45l-5.65 0.08v-0.53q0-0.9-0.51-1.47-0.5-0.56-1.3-0.56-0.79 0-1.27 0.6-0.49 0.6-0.49 1.56 0 0.95 0.49 1.56 0.48 0.62 1.24 1 0.76 0.37 2.03 0.82 0.05 0.03 0.09 0.04 0.03 0.01 0.08 0.04 0.05 0.02 0.1 0.04 0.05 0.01 0.1 0.03 1.76 0.63 2.95 1.4 1.18 0.76 2 2.29 0.82 1.53 0.82 4.06 0 2.34-0.99 4.12-0.99 1.78-2.8 2.76-1.81 0.98-4.16 0.98-2.32 0-4.13-1.01z"/>
		<path id="&lt;Compound Path&gt;" class="s0" d="m998.14 248.91q-1.97-1.24-2.99-3.63-1.03-2.38-1.03-5.71v-5.75q0-3.36 1-5.74 1-2.39 2.93-3.63 1.91-1.24 4.6-1.24 2.25 0 4.13 1.21 1.87 1.2 3.02 3.38l-0.52 5.32q0-1.66-0.59-2.84-0.58-1.17-1.69-1.79-1.12-0.61-2.71-0.61-2.47 0-3.82 1.58-1.36 1.58-1.36 4.44v5.67q0 2.83 1.36 4.37 1.35 1.55 3.82 1.55 1.59-0.01 2.71-0.64 1.11-0.64 1.69-1.85 0.59-1.2 0.59-2.88l0.34 5.49q-0.75 1.93-2.48 3.24-1.72 1.3-4.24 1.3-2.79 0-4.76-1.24zm11.14-35.68h4.99v36.47h-4.99z"/>
		<path id="&lt;Compound Path&gt;" class="s0" d="m1027.86 213.23h4.99v36.47h-4.99zm7.24 35.68q-1.76-1.17-2.59-3.3l0.34-5.44q0 1.68 0.59 2.86 0.58 1.18 1.69 1.8 1.12 0.63 2.71 0.63 2.47 0 3.82-1.54 1.36-1.54 1.36-4.35v-5.65q0-2.86-1.36-4.44-1.35-1.58-3.82-1.58-1.59 0-2.71 0.61-1.11 0.6-1.69 1.76-0.59 1.17-0.59 2.8l-0.51-5.02q1.14-2.28 3-3.52 1.86-1.24 4.13-1.24 2.7 0 4.62 1.24 1.91 1.24 2.92 3.62 1 2.39 1 5.75v5.67q0 3.31-1.03 5.67-1.02 2.35-3.01 3.6-1.98 1.24-4.74 1.24-2.37 0-4.13-1.17z"/>
	</g>
	<g id="WHITE MMP">
		<g id="MINDER PRO">
			<path id="O" fill-rule="evenodd" class="s1" d="m1049.43 163.53v14.58q0.01 18.22-18.23 18.23h-14.58q-18.23-0.01-18.22-18.23v-14.58q-0.01-18.23 18.22-18.23h14.58q18.24 0 18.23 18.23zm-10.93 0q0-7.31-7.3-7.31h-14.58q-7.29 0-7.29 7.31v14.58q0 7.3 7.29 7.29h14.58q7.3 0.01 7.3-7.29z"/>
			<path id="R" fill-rule="evenodd" class="s1" d="m964.88 196.34h-15.46l-20.06-20.06h-8.25v20.06h-10.93v-51.04h36.47q14.58-0.01 14.59 14.59v1.81q-0.01 14.59-14.59 14.58h-1.83zm-18.23-31q3.64-0.01 3.65-3.64v-1.82q-0.01-3.67-3.65-3.67h-25.54v9.13z"/>
			<path id="P" fill-rule="evenodd" class="s1" d="m873.01 159.89v1.81c0 9.73-4.84 14.58-14.58 14.58h-25.51v20.06h-10.94v-51.04h36.45c9.74 0 14.58 4.85 14.58 14.59zm-10.93 0q0.01-3.67-3.65-3.67h-25.51v9.12h25.51q3.66 0 3.65-3.64z"/>
			<path id="R" fill-rule="evenodd" class="s1" d="m740.07 196.34h-15.46l-20.04-20.06h-8.24v20.06h-10.94v-51.04h36.46q14.57-0.01 14.58 14.59v1.81q-0.01 14.59-14.58 14.58h-1.84zm-18.23-31q3.64-0.01 3.65-3.64v-1.82q-0.01-3.67-3.65-3.67h-25.51v9.13z"/>
			<path id="E" class="s1" d="m648.23 156.22v-10.92h-51.06v51.04h51.06v-10.94h-40.1v-9.12h36.46v-10.94h-36.46v-9.12z"/>
			<path id="D" fill-rule="evenodd" class="s1" d="m560.01 163.53v14.58q0.01 18.22-18.23 18.23h-32.8v-51.04h32.8q18.24 0 18.23 18.23zm-10.94 0q0.01-7.31-7.29-7.31h-21.87v29.18h21.87q7.3 0.01 7.29-7.29z"/>
			<path id="N" class="s1" d="m460.88 145.3v32.37l-32.37-32.37h-7.73v51.04h10.94v-32.39l32.36 32.39h7.73v-51.04z"/>
			<path id="I" class="s1" d="m372.68 145.3v51.04h10.94v-51.04z"/>
			<path id="M" class="s1" d="m327.79 145.3l-17.79 17.79-17.81-17.79h-7.73v51.04h10.96v-32.39l14.58 14.6 14.58-14.6v32.39h10.94v-51.04z"/>
		</g>
		<g id="MEMBER">
			<path id="R" fill-rule="evenodd" class="s1" d="m1035.73 125.66h-35.03l-45.46-45.46h-18.69v45.46h-24.78v-115.72h82.64q33.06 0.01 33.05 33.08v4.13q0.01 33.04-33.05 33.05h-4.14zm-41.32-70.26q8.27 0.01 8.27-8.24v-4.14q0-8.26-8.27-8.27h-57.86v20.65z"/>
			<path id="E" class="s1" d="m902.01 34.75v-24.81h-115.7v115.72h115.7v-24.81h-90.92v-20.65h82.65v-24.8h-82.65v-20.65z"/>
			<path id="B" fill-rule="evenodd" class="s1" d="m776.55 47.15q0.01 12.8-4.97 20.65 4.98 7.86 4.97 20.67v4.14q0.01 33.04-33.05 33.05h-82.65v-115.72h82.65q33.06 0.01 33.05 33.08zm-24.78 41.32q-0.01-8.28-8.27-8.27h-57.86v20.65h57.86q8.26 0 8.27-8.25zm0-45.45q-0.01-8.27-8.27-8.27h-57.86v20.65h57.86q8.26 0 8.27-8.25z"/>
			<path id="M" class="s1" d="m633.58 9.94l-40.35 40.34-40.32-40.34h-17.51v115.72h24.78v-73.4l33.05 33.06 33.08-33.06v73.4h24.78v-115.72z"/>
			<path id="E" class="s1" d="m525.64 34.75v-24.81h-115.7v115.72h115.7v-24.81h-90.92v-20.65h82.65v-24.8h-82.65v-20.65z"/>
			<path id="M" class="s1" d="m382.66 9.94l-40.34 40.34-40.32-40.34h-17.51v115.72h24.78v-73.4l33.05 33.06 33.05-33.06v73.4h24.81v-115.72z"/>
		</g>
	</g>
	<g id="&lt;Red ICON&gt;">
		<path id="&lt;Compound Path&gt;" class="s0" d="m210.35 84.88c-7.26-7.27-17.29-11.77-28.38-11.77-15.9 0-29.62 9.25-36.11 22.66 2.77 3.01 5.14 6.38 7.03 10.05 3.32-12.96 15.11-22.58 29.08-22.58 16.54 0 30 13.46 30 30.02v101.38c0 16.56-13.46 30.02-30 30.02-16.53 0-30.01-13.46-30.01-30.02v-13.33c-2.65 4.62-6.07 8.73-10.11 12.18v1.15c0 22.17 17.96 40.15 40.12 40.15 22.17 0 40.13-17.98 40.13-40.15v-101.38c0-11.08-4.5-21.11-11.75-28.38z"/>
		<path id="&lt;Compound Path&gt;" fill-rule="evenodd" class="s0" d="m71 31.11c0 16.95-13.8 30.72-30.73 30.72-16.93 0-30.7-13.77-30.7-30.72 0-16.93 13.77-30.71 30.7-30.71 16.93 0 30.73 13.78 30.73 30.71zm-9.56 0c0-11.67-9.5-21.17-21.17-21.17-11.67 0-21.16 9.5-21.16 21.17 0 11.67 9.49 21.16 21.16 21.16 11.67 0 21.17-9.49 21.17-21.16z"/>
		<path id="&lt;Compound Path&gt;" class="s0" d="m70.29 201.31v13.33c0 16.56-13.48 30.02-30.02 30.02-16.54 0-29.99-13.46-29.99-30.02v-101.38c0-16.56 13.45-30.02 29.99-30.02 13.97 0 25.76 9.62 29.09 22.58 1.89-3.67 4.26-7.04 7.02-10.05-1.95-4.06-4.6-7.73-7.73-10.89-7.26-7.27-17.29-11.77-28.38-11.77-22.16 0-40.12 17.98-40.12 40.15v101.38c0 22.17 17.96 40.15 40.12 40.15 22.17 0 40.13-17.98 40.13-40.15v-1.15c-4.04-3.45-7.47-7.56-10.11-12.18z"/>
		<path id="&lt;Compound Path&gt;" fill-rule="evenodd" class="s0" d="m141.85 45.78c0 16.96-13.8 30.73-30.73 30.73-16.93 0-30.72-13.77-30.72-30.73 0-16.92 13.79-30.7 30.72-30.7 16.93 0 30.73 13.78 30.73 30.7zm-9.56 0c0-11.67-9.5-21.16-21.17-21.16-11.67 0-21.16 9.49-21.16 21.16 0 11.67 9.49 21.17 21.16 21.17 11.67 0 21.17-9.5 21.17-21.17z"/>
		<path id="&lt;Compound Path&gt;" fill-rule="evenodd" class="s2" d="m151.25 126.79v51.84c0 9.69-3.53 18.54-9.4 25.37-7.14 8.34-17.74 13.63-29.6 13.63h-2.25c-11.87 0-22.46-5.29-29.6-13.63-5.88-6.83-9.4-15.68-9.4-25.37v-51.84c0-8.93 2.99-17.15 8.07-23.73 7.1-9.27 18.3-15.27 30.93-15.27h2.25c12.62 0 23.83 6 30.92 15.27 5.09 6.58 8.08 14.8 8.08 23.73zm-10.11-1.1c0-15.61-13.48-28.33-30.02-28.33-16.53 0-30.01 12.72-30.01 28.33v54.04c0 15.63 13.48 28.33 30.01 28.33 16.54 0 30.02-12.7 30.02-28.33z"/>
		<path id="&lt;Compound Path&gt;" fill-rule="evenodd" class="s0" d="m151.25 126.79v51.84c0 9.69-3.53 18.54-9.4 25.37-7.14 8.34-17.74 13.63-29.6 13.63h-2.25c-11.87 0-22.46-5.29-29.6-13.63-5.88-6.83-9.4-15.68-9.4-25.37v-51.84c0-8.93 2.99-17.15 8.07-23.73 7.1-9.27 18.3-15.27 30.93-15.27h2.25c12.62 0 23.83 6 30.92 15.27 5.09 6.58 8.08 14.8 8.08 23.73zm-10.11-1.1c0-15.61-13.48-28.33-30.02-28.33-16.53 0-30.01 12.72-30.01 28.33v54.04c0 15.63 13.48 28.33 30.01 28.33 16.54 0 30.02-12.7 30.02-28.33z"/>
		<path id="&lt;Compound Path&gt;" fill-rule="evenodd" class="s0" d="m212.68 31.11c0 16.95-13.78 30.72-30.71 30.72-16.93 0-30.72-13.77-30.72-30.72 0-16.93 13.79-30.71 30.72-30.71 16.93 0 30.71 13.78 30.71 30.71zm-9.54 0c0-11.67-9.5-21.17-21.17-21.17-11.67 0-21.16 9.5-21.16 21.17 0 11.67 9.49 21.16 21.16 21.16 11.67 0 21.17-9.49 21.17-21.16z"/>
	</g>
	<g id="&lt;Blue ICON&gt;">
		<path id="&lt;Compound Path&gt;" class="s0" d="m210.35 84.88c-7.26-7.27-17.29-11.77-28.38-11.77-15.9 0-29.62 9.25-36.11 22.66 2.77 3.01 5.14 6.38 7.03 10.05 3.32-12.96 15.11-22.58 29.08-22.58 16.54 0 30 13.46 30 30.02v101.38c0 16.56-13.46 30.02-30 30.02-16.53 0-30.01-13.46-30.01-30.02v-13.33c-2.65 4.62-6.07 8.73-10.11 12.18v1.15c0 22.17 17.96 40.15 40.12 40.15 22.17 0 40.13-17.98 40.13-40.15v-101.38c0-11.08-4.5-21.11-11.75-28.38z"/>
		<path id="&lt;Compound Path&gt;" fill-rule="evenodd" class="s0" d="m71 31.11c0 16.95-13.8 30.72-30.73 30.72-16.93 0-30.7-13.77-30.7-30.72 0-16.93 13.77-30.71 30.7-30.71 16.93 0 30.73 13.78 30.73 30.71zm-9.56 0c0-11.67-9.5-21.17-21.17-21.17-11.67 0-21.16 9.5-21.16 21.17 0 11.67 9.49 21.16 21.16 21.16 11.67 0 21.17-9.49 21.17-21.16z"/>
		<path id="&lt;Compound Path&gt;" class="s0" d="m70.29 201.31v13.33c0 16.56-13.48 30.02-30.02 30.02-16.54 0-29.99-13.46-29.99-30.02v-101.38c0-16.56 13.45-30.02 29.99-30.02 13.97 0 25.76 9.62 29.09 22.58 1.89-3.67 4.26-7.04 7.02-10.05-1.95-4.06-4.6-7.73-7.73-10.89-7.26-7.27-17.29-11.77-28.38-11.77-22.16 0-40.12 17.98-40.12 40.15v101.38c0 22.17 17.96 40.15 40.12 40.15 22.17 0 40.13-17.98 40.13-40.15v-1.15c-4.04-3.45-7.47-7.56-10.11-12.18z"/>
		<path id="&lt;Compound Path&gt;" fill-rule="evenodd" class="s0" d="m141.85 45.78c0 16.96-13.8 30.73-30.73 30.73-16.93 0-30.72-13.77-30.72-30.73 0-16.92 13.79-30.7 30.72-30.7 16.93 0 30.73 13.78 30.73 30.7zm-9.56 0c0-11.67-9.5-21.16-21.17-21.16-11.67 0-21.16 9.49-21.16 21.16 0 11.67 9.49 21.17 21.16 21.17 11.67 0 21.17-9.5 21.17-21.17z"/>
		<path id="&lt;Compound Path&gt;" fill-rule="evenodd" class="s2" d="m151.25 126.79v51.84c0 9.69-3.53 18.54-9.4 25.37-7.14 8.34-17.74 13.63-29.6 13.63h-2.25c-11.87 0-22.46-5.29-29.6-13.63-5.88-6.83-9.4-15.68-9.4-25.37v-51.84c0-8.93 2.99-17.15 8.07-23.73 7.1-9.27 18.3-15.27 30.93-15.27h2.25c12.62 0 23.83 6 30.92 15.27 5.09 6.58 8.08 14.8 8.08 23.73zm-10.11-1.1c0-15.61-13.48-28.33-30.02-28.33-16.53 0-30.01 12.72-30.01 28.33v54.04c0 15.63 13.48 28.33 30.01 28.33 16.54 0 30.02-12.7 30.02-28.33z"/>
		<path id="&lt;Compound Path&gt;" fill-rule="evenodd" class="s0" d="m151.25 126.79v51.84c0 9.69-3.53 18.54-9.4 25.37-7.14 8.34-17.74 13.63-29.6 13.63h-2.25c-11.87 0-22.46-5.29-29.6-13.63-5.88-6.83-9.4-15.68-9.4-25.37v-51.84c0-8.93 2.99-17.15 8.07-23.73 7.1-9.27 18.3-15.27 30.93-15.27h2.25c12.62 0 23.83 6 30.92 15.27 5.09 6.58 8.08 14.8 8.08 23.73zm-10.11-1.1c0-15.61-13.48-28.33-30.02-28.33-16.53 0-30.01 12.72-30.01 28.33v54.04c0 15.63 13.48 28.33 30.01 28.33 16.54 0 30.02-12.7 30.02-28.33z"/>
		<path id="&lt;Compound Path&gt;" fill-rule="evenodd" class="s0" d="m212.68 31.11c0 16.95-13.78 30.72-30.71 30.72-16.93 0-30.72-13.77-30.72-30.72 0-16.93 13.79-30.71 30.72-30.71 16.93 0 30.71 13.78 30.71 30.71zm-9.54 0c0-11.67-9.5-21.17-21.17-21.17-11.67 0-21.16 9.5-21.16 21.17 0 11.67 9.49 21.16 21.16 21.16 11.67 0 21.17-9.49 21.17-21.16z"/>
	</g>
</svg>