<svg xmlns="http://www.w3.org/2000/svg" viewBox="0 0 768 244" width="768" height="244"><rect width="768" height="244" fill="#ffffff"/>
<g transform="translate(-313, -30)"><path d="M 1034 171 L 1029 180 L 1029 206 L 1031 212 L 1035 216 L 1043 219 L 1066 219 L 1074 216 L 1077 213 L 1080 206 L 1080 181 L 1076 172 L 1068 168 L 1040 168 Z M 1044 179 L 1065 179 L 1069 184 L 1069 203 L 1066 207 L 1064 208 L 1045 208 L 1041 205 L 1040 203 L 1040 183 Z M 941 168 L 941 219 L 952 219 L 952 200 L 953 199 L 960 199 L 980 219 L 995 219 L 978 201 L 979 199 L 988 196 L 992 188 L 991 175 L 986 169 L 983 168 Z M 952 180 L 953 179 L 979 179 L 981 181 L 981 185 L 978 188 L 953 188 L 952 187 Z M 853 219 L 863 219 L 863 200 L 864 199 L 892 199 L 898 197 L 902 193 L 904 186 L 902 173 L 895 168 L 853 168 Z M 863 180 L 864 179 L 891 179 L 893 184 L 890 188 L 864 188 L 863 187 Z M 716 168 L 716 219 L 727 219 L 727 200 L 728 199 L 735 199 L 755 219 L 771 219 L 753 201 L 754 199 L 762 197 L 765 194 L 767 189 L 767 178 L 765 173 L 761 169 L 758 168 Z M 727 180 L 728 179 L 754 179 L 756 181 L 756 185 L 753 188 L 728 188 L 727 187 Z M 628 168 L 628 219 L 679 219 L 679 208 L 640 208 L 639 207 L 639 200 L 640 199 L 675 199 L 675 188 L 640 188 L 639 187 L 639 180 L 640 179 L 679 179 L 679 168 Z M 540 168 L 540 219 L 577 219 L 586 215 L 589 211 L 591 202 L 591 184 L 588 174 L 584 170 L 579 168 Z M 550 180 L 551 179 L 575 179 L 577 180 L 580 185 L 580 201 L 579 204 L 574 208 L 551 208 L 550 207 Z M 451 168 L 451 219 L 462 219 L 462 190 L 463 189 L 494 219 L 502 219 L 502 168 L 491 168 L 491 196 L 490 197 L 460 168 Z M 403 168 L 403 219 L 414 219 L 414 168 Z M 315 168 L 315 219 L 326 219 L 326 190 L 327 189 L 340 201 L 354 189 L 355 190 L 355 219 L 366 219 L 366 168 L 358 168 L 342 184 L 340 184 L 323 168 Z M 942 32 L 942 148 L 967 148 L 967 104 L 968 103 L 986 103 L 1031 148 L 1066 148 L 1024 105 L 1025 103 L 1036 102 L 1046 98 L 1051 94 L 1055 88 L 1058 77 L 1058 58 L 1055 47 L 1049 39 L 1040 34 L 1030 33 L 1029 32 Z M 967 58 L 968 57 L 1027 57 L 1033 62 L 1033 73 L 1027 78 L 968 78 L 967 77 Z M 817 32 L 817 148 L 933 148 L 933 123 L 843 123 L 842 122 L 842 104 L 843 103 L 924 103 L 924 78 L 843 78 L 842 77 L 842 58 L 843 57 L 933 57 L 933 32 Z M 691 32 L 691 148 L 782 148 L 790 146 L 796 143 L 802 137 L 805 131 L 807 123 L 807 103 L 805 95 L 803 92 L 803 89 L 807 78 L 807 57 L 804 47 L 800 41 L 789 34 L 779 33 L 778 32 Z M 716 104 L 717 103 L 778 103 L 782 108 L 782 118 L 777 123 L 717 123 L 716 122 Z M 716 58 L 717 57 L 776 57 L 782 62 L 782 73 L 776 78 L 717 78 L 716 77 Z M 566 32 L 566 148 L 591 148 L 591 78 L 592 77 L 624 108 L 656 77 L 657 78 L 657 148 L 682 148 L 682 32 L 664 32 L 625 71 L 623 71 L 584 32 Z M 440 32 L 440 148 L 556 148 L 556 123 L 466 123 L 465 122 L 465 104 L 466 103 L 548 103 L 548 78 L 466 78 L 465 77 L 465 58 L 466 57 L 556 57 L 556 32 Z M 315 32 L 315 148 L 340 148 L 340 78 L 341 77 L 373 108 L 405 77 L 406 78 L 406 148 L 431 148 L 431 32 L 413 32 L 374 71 L 372 71 L 333 32 Z" fill="#11284c" fill-rule="evenodd"/>
<path d="M 1003 246 L 999 250 L 999 257 L 1003 261 L 1007 262 L 1009 265 L 1006 267 L 1004 264 L 999 264 L 999 269 L 1002 272 L 1007 273 L 1011 272 L 1014 269 L 1014 260 L 1008 256 L 1009 254 L 1014 254 L 1014 251 L 1010 246 Z M 1005 253 L 1007 252 L 1008 254 L 1006 255 Z M 990 246 L 986 247 L 978 246 L 978 272 L 984 272 L 984 256 L 986 253 L 990 252 Z M 956 246 L 954 247 L 952 251 L 952 268 L 954 271 L 959 273 L 965 272 L 968 268 L 968 264 L 962 264 L 961 266 L 959 266 L 958 262 L 959 261 L 968 261 L 968 251 L 964 246 Z M 958 253 L 961 252 L 962 256 L 959 257 Z M 889 246 L 889 272 L 895 272 L 895 253 L 896 252 L 899 253 L 899 272 L 905 272 L 905 254 L 907 252 L 909 253 L 909 272 L 916 272 L 916 251 L 913 246 L 908 246 L 906 248 L 903 246 Z M 875 246 L 867 246 L 863 250 L 863 268 L 866 272 L 870 273 L 877 271 L 879 267 L 879 264 L 873 264 L 871 267 L 869 266 L 870 261 L 879 261 L 879 252 L 878 249 Z M 869 253 L 872 252 L 873 256 L 870 257 Z M 813 246 L 813 272 L 819 272 L 819 246 Z M 1058 236 L 1058 272 L 1063 272 L 1064 271 L 1069 273 L 1074 272 L 1078 268 L 1079 263 L 1078 250 L 1074 246 L 1064 247 L 1063 246 L 1063 236 Z M 1068 250 L 1071 251 L 1074 256 L 1074 262 L 1073 265 L 1070 268 L 1067 268 L 1063 263 L 1063 255 Z M 1045 236 L 1040 236 L 1040 246 L 1039 247 L 1029 246 L 1025 251 L 1025 267 L 1029 272 L 1035 273 L 1038 271 L 1045 272 Z M 1034 250 L 1037 251 L 1040 254 L 1040 264 L 1036 268 L 1034 268 L 1030 265 L 1030 254 Z M 926 236 L 926 272 L 936 272 L 937 273 L 940 272 L 942 269 L 942 249 L 940 246 L 933 247 L 932 246 L 932 236 Z M 934 252 L 936 253 L 936 266 L 935 267 L 932 264 L 932 254 Z M 829 236 L 829 272 L 835 272 L 835 260 L 836 259 L 838 260 L 839 266 L 843 266 L 844 260 L 846 259 L 847 260 L 847 272 L 853 272 L 853 236 L 847 236 L 842 251 L 839 249 L 836 237 L 835 236 Z M 813 236 L 813 242 L 819 242 L 819 236 Z M 704 236 L 704 272 L 709 272 L 710 271 L 715 273 L 720 272 L 724 268 L 724 251 L 720 246 L 710 247 L 709 246 L 709 236 Z M 714 250 L 719 253 L 719 265 L 716 268 L 713 268 L 709 263 L 709 255 Z M 691 236 L 686 236 L 686 246 L 685 247 L 675 246 L 671 251 L 671 267 L 675 272 L 681 273 L 684 271 L 691 272 Z M 680 250 L 683 251 L 686 255 L 686 263 L 682 268 L 679 268 L 676 265 L 676 253 Z M 623 236 L 615 272 L 621 272 L 621 269 L 623 266 L 628 266 L 630 272 L 636 272 L 628 236 Z M 625 254 L 627 255 L 627 260 L 626 261 L 623 260 Z M 590 236 L 590 272 L 603 272 L 606 270 L 608 265 L 608 243 L 607 239 L 604 236 Z M 597 242 L 601 243 L 601 265 L 600 266 L 596 265 L 596 243 Z M 764 236 L 760 241 L 760 250 L 761 252 L 758 255 L 756 260 L 757 268 L 760 271 L 766 273 L 774 271 L 785 272 L 780 266 L 782 261 L 782 254 L 778 254 L 777 260 L 775 261 L 767 252 L 765 248 L 765 243 L 769 240 L 773 242 L 774 246 L 779 246 L 778 239 L 771 235 Z M 762 259 L 765 258 L 772 266 L 770 268 L 764 267 L 761 263 Z M 649 235 L 646 236 L 643 240 L 643 268 L 645 271 L 652 273 L 656 272 L 659 269 L 660 260 L 654 260 L 654 263 L 652 266 L 649 264 L 649 243 L 652 242 L 654 245 L 654 248 L 660 248 L 660 242 L 659 239 L 656 236 Z" fill="#911a30" fill-rule="evenodd"/>
</g></svg>