<svg xmlns="http://www.w3.org/2000/svg" viewBox="0 0 1110 303" width="1110" height="303"><g transform="translate(0, 0)"><path d="M 1034 171 L 1029 180 L 1029 206 L 1031 212 L 1035 216 L 1043 219 L 1066 219 L 1074 216 L 1077 213 L 1080 206 L 1080 181 L 1076 172 L 1068 168 L 1040 168 Z M 1044 179 L 1065 179 L 1069 184 L 1069 203 L 1066 207 L 1064 208 L 1045 208 L 1041 205 L 1040 203 L 1040 183 Z M 941 168 L 941 219 L 952 219 L 952 200 L 953 199 L 960 199 L 980 219 L 995 219 L 978 201 L 979 199 L 988 196 L 992 188 L 991 175 L 986 169 L 983 168 Z M 952 180 L 953 179 L 979 179 L 981 181 L 981 185 L 978 188 L 953 188 L 952 187 Z M 853 219 L 863 219 L 863 200 L 864 199 L 892 199 L 898 197 L 902 193 L 904 186 L 902 173 L 895 168 L 853 168 Z M 863 180 L 864 179 L 891 179 L 893 184 L 890 188 L 864 188 L 863 187 Z M 716 168 L 716 219 L 727 219 L 727 200 L 728 199 L 735 199 L 755 219 L 771 219 L 753 201 L 754 199 L 762 197 L 765 194 L 767 189 L 767 178 L 765 173 L 761 169 L 758 168 Z M 727 180 L 728 179 L 754 179 L 756 181 L 756 185 L 753 188 L 728 188 L 727 187 Z M 628 168 L 628 219 L 679 219 L 679 208 L 640 208 L 639 207 L 639 200 L 640 199 L 675 199 L 675 188 L 640 188 L 639 187 L 639 180 L 640 179 L 679 179 L 679 168 Z M 540 168 L 540 219 L 577 219 L 586 215 L 589 211 L 591 202 L 591 184 L 588 174 L 584 170 L 579 168 Z M 550 180 L 551 179 L 575 179 L 577 180 L 580 185 L 580 201 L 579 204 L 574 208 L 551 208 L 550 207 Z M 451 168 L 451 219 L 462 219 L 462 190 L 463 189 L 494 219 L 502 219 L 502 168 L 491 168 L 491 196 L 490 197 L 460 168 Z M 403 168 L 403 219 L 414 219 L 414 168 Z M 315 168 L 315 219 L 326 219 L 326 190 L 327 189 L 340 201 L 354 189 L 355 190 L 355 219 L 366 219 L 366 168 L 358 168 L 342 184 L 340 184 L 323 168 Z M 942 32 L 942 148 L 967 148 L 967 104 L 968 103 L 986 103 L 1031 148 L 1066 148 L 1024 105 L 1025 103 L 1036 102 L 1046 98 L 1051 94 L 1055 88 L 1058 77 L 1058 58 L 1055 47 L 1049 39 L 1040 34 L 1030 33 L 1029 32 Z M 967 58 L 968 57 L 1027 57 L 1033 62 L 1033 73 L 1027 78 L 968 78 L 967 77 Z M 817 32 L 817 148 L 933 148 L 933 123 L 843 123 L 842 122 L 842 104 L 843 103 L 924 103 L 924 78 L 843 78 L 842 77 L 842 58 L 843 57 L 933 57 L 933 32 Z M 691 32 L 691 148 L 782 148 L 790 146 L 796 143 L 802 137 L 805 131 L 807 123 L 807 103 L 805 95 L 803 92 L 803 89 L 807 78 L 807 57 L 804 47 L 800 41 L 789 34 L 779 33 L 778 32 Z M 716 104 L 717 103 L 778 103 L 782 108 L 782 118 L 777 123 L 717 123 L 716 122 Z M 716 58 L 717 57 L 776 57 L 782 62 L 782 73 L 776 78 L 717 78 L 716 77 Z M 566 32 L 566 148 L 591 148 L 591 78 L 592 77 L 624 108 L 656 77 L 657 78 L 657 148 L 682 148 L 682 32 L 664 32 L 625 71 L 623 71 L 584 32 Z M 440 32 L 440 148 L 556 148 L 556 123 L 466 123 L 465 122 L 465 104 L 466 103 L 548 103 L 548 78 L 466 78 L 465 77 L 465 58 L 466 57 L 556 57 L 556 32 Z M 315 32 L 315 148 L 340 148 L 340 78 L 341 77 L 373 108 L 405 77 L 406 78 L 406 148 L 431 148 L 431 32 L 413 32 L 374 71 L 372 71 L 333 32 Z" fill="#11284c" fill-rule="evenodd"/>
<path d="M 1003 246 L 999 250 L 999 257 L 1003 261 L 1007 262 L 1009 265 L 1006 267 L 1004 264 L 999 264 L 999 269 L 1002 272 L 1007 273 L 1011 272 L 1014 269 L 1014 260 L 1008 256 L 1009 254 L 1014 254 L 1014 251 L 1010 246 Z M 1005 253 L 1007 252 L 1008 254 L 1006 255 Z M 990 246 L 986 247 L 978 246 L 978 272 L 984 272 L 984 256 L 986 253 L 990 252 Z M 956 246 L 954 247 L 952 251 L 952 268 L 954 271 L 959 273 L 965 272 L 968 268 L 968 264 L 962 264 L 961 266 L 959 266 L 958 262 L 959 261 L 968 261 L 968 251 L 964 246 Z M 958 253 L 961 252 L 962 256 L 959 257 Z M 889 246 L 889 272 L 895 272 L 895 253 L 896 252 L 899 253 L 899 272 L 905 272 L 905 254 L 907 252 L 909 253 L 909 272 L 916 272 L 916 251 L 913 246 L 908 246 L 906 248 L 903 246 Z M 875 246 L 867 246 L 863 250 L 863 268 L 866 272 L 870 273 L 877 271 L 879 267 L 879 264 L 873 264 L 871 267 L 869 266 L 870 261 L 879 261 L 879 252 L 878 249 Z M 869 253 L 872 252 L 873 256 L 870 257 Z M 813 246 L 813 272 L 819 272 L 819 246 Z M 559 246 L 554 246 L 553 247 L 543 246 L 539 251 L 539 267 L 543 272 L 546 273 L 550 272 L 554 273 L 553 276 L 550 278 L 546 278 L 543 275 L 539 278 L 543 282 L 551 283 L 554 282 L 558 278 L 559 275 Z M 548 250 L 550 250 L 554 254 L 554 264 L 550 268 L 546 267 L 544 264 L 544 254 Z M 506 246 L 506 272 L 511 272 L 511 253 L 513 251 L 518 251 L 521 255 L 521 272 L 526 272 L 526 252 L 524 248 L 521 246 L 514 246 L 513 247 Z M 487 246 L 487 272 L 492 272 L 492 246 Z M 475 246 L 468 246 L 467 247 L 460 246 L 460 272 L 465 272 L 465 253 L 467 251 L 474 252 L 477 248 Z M 432 246 L 428 249 L 426 253 L 427 268 L 432 272 L 436 273 L 442 272 L 446 269 L 443 265 L 436 268 L 431 264 L 431 262 L 432 261 L 447 261 L 446 252 L 441 246 Z M 431 255 L 434 251 L 437 250 L 441 253 L 442 256 L 441 257 L 432 257 Z M 380 246 L 388 272 L 392 272 L 396 260 L 398 258 L 400 259 L 404 272 L 408 272 L 416 246 L 411 246 L 410 247 L 408 258 L 406 260 L 404 259 L 400 246 L 396 246 L 391 260 L 388 258 L 386 246 Z M 355 246 L 351 249 L 349 255 L 350 267 L 355 272 L 359 273 L 365 272 L 368 270 L 370 266 L 370 252 L 364 246 Z M 358 251 L 362 251 L 365 254 L 365 264 L 360 268 L 357 267 L 354 262 L 355 254 Z M 1058 236 L 1058 272 L 1063 272 L 1064 271 L 1069 273 L 1074 272 L 1078 268 L 1079 263 L 1078 250 L 1074 246 L 1064 247 L 1063 246 L 1063 236 Z M 1068 250 L 1071 251 L 1074 256 L 1074 262 L 1073 265 L 1070 268 L 1067 268 L 1063 263 L 1063 255 Z M 1045 236 L 1040 236 L 1040 246 L 1039 247 L 1029 246 L 1025 251 L 1025 267 L 1029 272 L 1035 273 L 1038 271 L 1045 272 Z M 1034 250 L 1037 251 L 1040 254 L 1040 264 L 1036 268 L 1034 268 L 1030 265 L 1030 254 Z M 926 236 L 926 272 L 936 272 L 937 273 L 940 272 L 942 269 L 942 249 L 940 246 L 933 247 L 932 246 L 932 236 Z M 934 252 L 936 253 L 936 266 L 935 267 L 932 264 L 932 254 Z M 829 236 L 829 272 L 835 272 L 835 260 L 836 259 L 838 260 L 839 266 L 843 266 L 844 260 L 846 259 L 847 260 L 847 272 L 853 272 L 853 236 L 847 236 L 842 251 L 839 249 L 836 237 L 835 236 Z M 813 236 L 813 242 L 819 242 L 819 236 Z M 704 236 L 704 272 L 709 272 L 710 271 L 715 273 L 720 272 L 724 268 L 724 251 L 720 246 L 710 247 L 709 246 L 709 236 Z M 714 250 L 719 253 L 719 265 L 716 268 L 713 268 L 709 263 L 709 255 Z M 691 236 L 686 236 L 686 246 L 685 247 L 675 246 L 671 251 L 671 267 L 675 272 L 681 273 L 684 271 L 691 272 Z M 680 250 L 683 251 L 686 255 L 686 263 L 682 268 L 679 268 L 676 265 L 676 253 Z M 623 236 L 615 272 L 621 272 L 621 269 L 623 266 L 628 266 L 630 272 L 636 272 L 628 236 Z M 625 254 L 627 255 L 627 260 L 626 261 L 623 260 Z M 590 236 L 590 272 L 603 272 L 606 270 L 608 265 L 608 243 L 607 239 L 604 236 Z M 597 242 L 601 243 L 601 265 L 600 266 L 596 265 L 596 243 Z M 487 236 L 487 241 L 492 241 L 492 236 Z M 334 236 L 316 236 L 316 272 L 321 272 L 321 259 L 322 258 L 333 258 L 338 255 L 340 251 L 340 243 L 339 240 Z M 321 242 L 322 241 L 332 241 L 335 245 L 335 249 L 331 253 L 322 253 L 321 252 Z M 764 236 L 760 241 L 760 250 L 761 252 L 758 255 L 756 260 L 757 268 L 760 271 L 766 273 L 774 271 L 785 272 L 780 266 L 782 261 L 782 254 L 778 254 L 777 260 L 775 261 L 767 252 L 765 248 L 765 243 L 769 240 L 773 242 L 774 246 L 779 246 L 778 239 L 771 235 Z M 762 259 L 765 258 L 772 266 L 770 268 L 764 267 L 761 263 Z M 649 235 L 646 236 L 643 240 L 643 268 L 645 271 L 652 273 L 656 272 L 659 269 L 660 260 L 654 260 L 654 263 L 652 266 L 649 264 L 649 243 L 652 242 L 654 245 L 654 248 L 660 248 L 660 242 L 659 239 L 656 236 Z M 136 110 L 127 112 L 119 116 L 110 124 L 104 134 L 102 141 L 102 210 L 109 225 L 120 235 L 134 240 L 149 240 L 157 238 L 166 233 L 175 224 L 179 217 L 182 206 L 182 144 L 178 131 L 174 125 L 167 118 L 161 114 L 153 111 Z M 136 120 L 147 120 L 159 125 L 169 136 L 172 146 L 172 204 L 171 209 L 168 216 L 162 223 L 149 230 L 135 230 L 127 227 L 116 217 L 112 208 L 112 142 L 117 132 L 123 126 Z M 204 96 L 197 98 L 187 104 L 180 111 L 176 118 L 181 124 L 182 127 L 184 128 L 184 126 L 189 117 L 197 110 L 206 106 L 219 106 L 231 112 L 238 120 L 242 129 L 242 135 L 243 136 L 243 237 L 242 238 L 242 244 L 238 253 L 229 262 L 224 265 L 217 267 L 208 267 L 199 264 L 187 253 L 183 244 L 182 224 L 179 229 L 172 236 L 172 240 L 175 253 L 181 263 L 186 268 L 201 276 L 220 277 L 227 275 L 239 268 L 248 257 L 252 247 L 252 241 L 253 240 L 253 132 L 252 131 L 252 126 L 247 114 L 234 101 L 221 96 Z M 62 96 L 51 100 L 40 109 L 33 121 L 31 128 L 31 245 L 36 258 L 42 266 L 47 270 L 56 275 L 63 277 L 78 277 L 90 273 L 96 269 L 103 262 L 110 248 L 111 236 L 101 224 L 101 241 L 97 252 L 89 261 L 76 267 L 62 266 L 54 262 L 46 254 L 41 242 L 41 130 L 46 119 L 54 111 L 65 106 L 77 106 L 88 111 L 95 118 L 100 128 L 107 119 L 107 117 L 104 112 L 95 103 L 86 98 L 80 96 Z M 134 38 L 123 43 L 115 52 L 111 62 L 111 74 L 114 83 L 124 94 L 136 99 L 147 99 L 158 95 L 168 85 L 172 76 L 172 61 L 167 50 L 157 41 L 149 38 Z M 138 47 L 145 47 L 154 51 L 159 56 L 163 65 L 163 71 L 160 79 L 153 86 L 147 89 L 137 89 L 130 86 L 124 80 L 121 74 L 121 63 L 123 58 L 131 50 Z M 206 23 L 193 29 L 186 37 L 182 47 L 182 60 L 188 73 L 196 80 L 206 84 L 219 84 L 232 78 L 239 70 L 243 60 L 243 47 L 237 34 L 229 27 L 219 23 Z M 211 32 L 223 35 L 231 43 L 234 52 L 233 60 L 231 64 L 223 72 L 214 75 L 206 74 L 202 72 L 194 64 L 191 55 L 194 43 L 202 35 Z M 64 23 L 53 28 L 45 36 L 41 44 L 40 49 L 41 63 L 47 74 L 54 80 L 64 84 L 78 84 L 89 79 L 98 69 L 100 65 L 102 55 L 101 46 L 98 38 L 89 28 L 77 23 Z M 69 32 L 77 33 L 84 37 L 89 43 L 92 50 L 92 57 L 88 66 L 81 72 L 73 75 L 65 74 L 59 71 L 53 65 L 50 58 L 50 49 L 53 42 L 59 36 Z" fill="#911a30" fill-rule="evenodd"/>
</g></svg>