<svg xmlns="http://www.w3.org/2000/svg" viewBox="0 0 512 512" width="512" height="512"><circle cx="256.0" cy="256.0" r="256.0" fill="#ffffff"/>
<path d="M 247 194 L 231 198 L 217 206 L 203 221 L 197 233 L 194 244 L 194 345 L 196 353 L 202 366 L 207 373 L 215 381 L 222 386 L 235 392 L 243 394 L 259 395 L 260 394 L 268 394 L 276 392 L 292 384 L 307 369 L 315 353 L 317 345 L 317 244 L 314 233 L 308 221 L 294 206 L 288 202 L 274 196 L 265 195 L 264 194 Z M 247 209 L 264 209 L 274 212 L 283 217 L 296 231 L 300 239 L 302 247 L 302 342 L 296 358 L 285 370 L 273 377 L 261 380 L 245 379 L 230 373 L 215 358 L 209 342 L 209 247 L 210 246 L 210 242 L 217 228 L 228 217 L 237 212 Z M 362 171 L 361 172 L 349 173 L 338 177 L 331 181 L 320 190 L 309 206 L 315 213 L 320 222 L 324 211 L 328 205 L 337 196 L 350 189 L 358 187 L 372 187 L 380 189 L 390 194 L 402 205 L 406 211 L 411 225 L 411 399 L 410 403 L 403 417 L 389 430 L 374 436 L 356 436 L 349 434 L 338 428 L 325 414 L 319 399 L 319 370 L 318 370 L 313 378 L 303 388 L 303 397 L 307 413 L 312 423 L 318 431 L 329 441 L 342 448 L 348 450 L 357 451 L 358 452 L 372 452 L 388 448 L 398 443 L 406 437 L 418 423 L 423 413 L 426 403 L 426 398 L 427 397 L 427 226 L 426 225 L 425 216 L 419 202 L 415 196 L 403 184 L 392 177 L 381 173 Z M 143 171 L 142 172 L 135 172 L 124 175 L 109 183 L 96 196 L 92 202 L 86 216 L 85 225 L 84 226 L 84 397 L 88 413 L 93 423 L 99 431 L 110 441 L 123 448 L 129 450 L 138 451 L 139 452 L 153 452 L 169 448 L 179 443 L 193 431 L 199 423 L 204 413 L 208 397 L 208 388 L 198 378 L 193 370 L 192 370 L 192 399 L 186 414 L 173 428 L 159 435 L 155 436 L 137 436 L 130 434 L 119 428 L 106 414 L 100 399 L 100 225 L 105 211 L 109 205 L 117 197 L 131 189 L 139 187 L 153 187 L 161 189 L 171 194 L 183 205 L 189 215 L 191 222 L 196 213 L 202 206 L 196 196 L 190 189 L 175 178 L 162 173 Z M 247 82 L 231 88 L 223 94 L 216 102 L 212 109 L 209 118 L 208 135 L 209 136 L 210 144 L 214 153 L 219 160 L 229 169 L 239 174 L 246 176 L 253 176 L 254 177 L 265 176 L 272 174 L 282 169 L 295 156 L 299 149 L 302 140 L 303 123 L 299 109 L 295 102 L 283 90 L 274 85 L 264 82 Z M 253 96 L 263 97 L 274 102 L 283 111 L 288 123 L 288 136 L 286 142 L 281 150 L 273 157 L 260 162 L 251 162 L 238 157 L 230 150 L 226 144 L 223 136 L 223 123 L 228 111 L 240 100 Z M 359 59 L 358 60 L 350 61 L 341 65 L 328 76 L 319 93 L 319 97 L 318 98 L 318 115 L 324 131 L 329 138 L 338 146 L 354 153 L 370 154 L 387 149 L 401 138 L 406 131 L 412 115 L 412 98 L 406 82 L 401 75 L 392 67 L 385 63 L 376 60 Z M 358 74 L 372 74 L 380 77 L 390 85 L 397 98 L 398 110 L 394 122 L 383 134 L 371 139 L 359 139 L 347 134 L 337 124 L 333 115 L 332 103 L 334 95 L 337 89 L 347 79 Z M 140 59 L 139 60 L 131 61 L 122 65 L 115 70 L 107 79 L 102 88 L 99 98 L 99 115 L 105 131 L 110 138 L 119 146 L 135 153 L 151 154 L 168 149 L 182 138 L 187 131 L 193 115 L 193 98 L 191 90 L 183 76 L 173 67 L 166 63 L 157 60 Z M 139 74 L 153 74 L 161 77 L 171 85 L 178 98 L 179 110 L 177 118 L 174 124 L 164 134 L 152 139 L 140 139 L 128 134 L 118 124 L 114 115 L 113 103 L 115 95 L 118 89 L 128 79 Z" fill="#992639" fill-rule="evenodd"/>
</svg>